<svg xmlns="http://www.w3.org/2000/svg" width="45.35" height="45.35" viewBox="0 0 45.35 45.35"><path d="M1.96 38.967V12.36h11.36c2.3 0 4.25.79 5.857 2.366s2.41 3.516 2.41 5.817c0 .816-.192 1.658-.574 2.523-.382.866-.888 1.56-1.517 2.08 2.122 1.075 3.184 2.88 3.184 5.417-.025 2.437-.757 4.447-2.197 6.03-1.44 1.583-3.463 2.374-6.07 2.374H1.96zm6.586-16.142h4.248c.503 0 .932-.148 1.288-.445.343-.32.55-.692.625-1.113.036-.21.062-.414.073-.612 0-.21-.024-.427-.073-.65-.086-.42-.304-.784-.653-1.094-.35-.305-.78-.46-1.297-.46h-4.21v4.378zm0 10.056h5.418c.52 0 .956-.15 1.308-.455.354-.307.566-.682.64-1.123.038-.21.057-.417.057-.626.01-.233-.01-.46-.06-.68-.074-.442-.294-.817-.658-1.124-.365-.31-.808-.46-1.327-.46h-5.38v4.47zm19.464 6.09V12.36h16.57v6.086h-9.61v5.808h8.515v6.086H34.97v8.627h-6.96z" fill="#FFF"/></svg>