<?xml version="1.0" encoding="UTF-8"?>
<!DOCTYPE svg PUBLIC "-//W3C//DTD SVG 1.1//EN" "http://www.w3.org/Graphics/SVG/1.1/DTD/svg11.dtd">
<!-- Creator: CorelDRAW X6 -->
<svg xmlns="http://www.w3.org/2000/svg" xml:space="preserve" width="33.8666mm" height="16.9332mm" version="1.1" style="shape-rendering:geometricPrecision; text-rendering:geometricPrecision; image-rendering:optimizeQuality; fill-rule:evenodd; clip-rule:evenodd"
viewBox="0 0 3387 1693"
 xmlns:xlink="http://www.w3.org/1999/xlink">
 <defs>
  <style type="text/css">
   <![CDATA[
    .str2 {stroke:#FEFEFE;stroke-width:20}
    .str1 {stroke:#FEFEFE;stroke-width:25}
    .str0 {stroke:#FEFEFE;stroke-width:27.7}
    .fil0 {fill:none}
   ]]>
  </style>
 </defs>
 <g id="Layer_x0020_1">
  <metadata id="CorelCorpID_0Corel-Layer"/>
  <path class="fil0 str0" d="M30 1064c24,-44 4,-11 17,-33 85,-132 199,-254 328,-344 52,-36 107,-61 166,-83 7,-2 103,-36 104,-32 4,66 8,132 12,198 10,165 20,329 35,494 9,91 -16,153 -70,225 -4,6 -128,-35 -142,-39 -71,-18 -142,-37 -212,-61 -36,-12 -72,-26 -106,-45 -86,-48 -159,-141 -143,-246l11 -34z"/>
  <path class="fil0 str1" d="M2705 950c30,0 55,24 55,54l0 82c0,30 -25,54 -55,53l-48 0 -7 279c-84,3 -165,7 -254,11 -11,-96 -22,-195 -33,-294l-282 -3 0 0 0 1 0 1 0 0 0 1 0 1 0 0 0 1 0 1 0 1 0 0 0 1 0 1 0 0 0 1 0 1 0 0 0 1 0 1 0 0 0 1 0 0 0 2 0 0 0 1 0 1 0 0 0 1 0 1 0 0 0 1 0 1 0 0 0 1 0 0 0 2 -1 0 0 1 0 1 0 0 0 1 0 1 0 0 0 1 0 1 0 0 0 1 0 0 0 1 0 1 0 1 0 1 0 0 0 1 0 1 0 0 0 1 0 0 0 1 0 1 0 0 0 1 0 1 0 0 0 1 0 0 0 1 0 1 0 0 0 1 0 1 0 0 0 1 0 0 -1 2 0 0 0 1 0 1 0 0 0 1 0 0 0 1 0 1 0 0 0 1 0 0 0 1 0 0 0 1 0 0 0 1 0 0 0 1 0 1 0 0 0 1 0 0 0 1 0 1 0 0 0 1 0 0 0 1 0 1 -9 259c-1,30 -2,55 -2,56 0,0 0,21 -1,44 0,0 0,0 -4,21 -8,48 -38,94 -61,94 -1,0 -2,0 -3,-1 -27,-3 -56,-51 -61,-104 -1,-8 -1,-8 -1,-8 0,-9 1,-17 1,-18 0,-2 -1,-28 -1,-58 0,0 0,-19 0,-56 0,-89 0,-181 0,-272l0 -2 0 -2 0 -2 0 -2 0 -2 0 -2 0 -2 0 -2 0 -2 0 -2 1 -3 0 -2 0 -2 -251 -3 0 6 1 14 0 14 0 13 0 13 0 13 0 12 0 11 0 12 0 11 0 10 0 10 0 9 0 9 0 8 0 8 0 7 0 7 0 6 0 5 0 5 0 4 0 3 0 2 0 2 0 1 0 1c0,30 -13,39 -29,21 -16,-18 -62,-95 -62,-125l1 -113 -30 0 0 5 0 4 0 2 0 2 0 5 0 4 0 5 0 1 0 3 0 5 0 4 0 5 0 0 0 4 -1 4 0 5 0 4 0 0 0 5 0 4 0 4 0 4 0 1 0 4 0 5 0 4 0 3 0 1 0 5 0 4 -1 4 0 2 0 2 0 5 0 4 0 4 0 2 0 2 0 5 0 4 0 4 0 1 0 3 0 4 0 5 0 4 0 0 -1 4 0 4 0 4 0 4 0 0 0 4 0 4 0 4 0 3 0 1 0 4 0 4 0 4 0 3 0 1 0 4 -1 4 0 4 0 2 0 2 0 3 0 4 0 4 0 1 0 3 0 4 0 3 0 4 0 1 0 3 0 3 0 4 0 4c0,0 0,0 0,0 -10,2 -22,-18 -26,-44 0,0 0,0 0,-24l0 -3 0 -3 0 -2 0 -3 0 -1 0 -2 0 -3 0 -3 0 -2 0 -3 0 0 0 -3 0 -3 0 -3 0 -3 0 -1 0 -2 0 -3 0 -3 0 -3 0 -2 0 0 0 -3 -1 -3 0 -3 0 -3 0 -1 0 -3 0 -3 0 -3 0 -3 0 -2 0 -1 0 -3 0 -3 0 -3 0 -3 0 0 0 -3 0 -3 0 -4 0 -6 0 -3 0 -3 0 -3 0 -3 0 -1 0 -3 0 -3 0 -3 0 -3 0 -2 0 -2 0 -3 0 -3 0 -3 0 -3 0 -1 0 -3 0 -3 0 -4 0 -3 0 -1 0 -2 0 -3 0 -4 0 -3 0 -2 0 -1 0 -4 0 -3 0 -3 0 -4 0 0 0 -3 0 -3 -84 -1 0 3 0 1 0 3 0 1 0 3 0 1 -1 3 0 1 0 3 0 2 0 2 0 2 0 2 0 3 0 1 0 3 0 0 0 4 0 1 -1 3 0 1 0 3 0 1 0 3 0 2 0 2 0 2 0 2 0 3 0 0 -1 4 0 0 0 4 0 1 0 3 0 1 0 3 0 1 0 3 -1 2 0 1 0 3 0 1 0 4 0 0 0 4 0 0 -1 4 0 0 0 4 0 1 0 2 0 2 0 2 0 3 0 1 -1 3 0 1 0 3 0 1 0 4 0 0 -1 3 0 1 0 3 0 1 0 3 0 2 0 2 -1 2 0 2 0 3 0 1 0 3 0 0 0 4 -1 0 0 4 0 1 0 3 0 1 0 3 -1 1 0 2 0 3 0 1 0 3 0 1 -1 4 0 0 0 4 0 0 0 3 0 1 -1 3 0 2 0 2 0 2 0 2 0 2 -1 2 0 3 0 0 0 4 0 0 -1 4 0 0 0 4 0 1 0 3 0 1 -1 2 0 3 0 1 0 3 0 1 -1 3 0 1 0 4c-2,20 -17,43 -35,51 -14,8 -14,8 -14,8 -23,-9 -49,-25 -56,-35 0,0 0,0 -1,-6l-1 -3 -1 -4 0 0 0 -4 -1 -3 0 0 -1 -4 -1 -4 0 0 0 -4 -1 -4 0 0 -1 -4 -1 -4 0 0 0 -4 -1 -3 0 -1 -1 -4 -1 -4 0 0 -1 -4 0 -4 0 0 -1 -4 -1 -4 0 -1 -1 -4 -1 -3 0 -1 -1 -4 0 -4 0 0 -1 -5 -1 -3 0 -1 -1 -4 0 -3 -1 -1 0 -5 -1 -3 0 -1 -1 -4 -1 -4 0 -1 -1 -4 0 -3 -1 -1 0 -5 -1 -3 0 -1 -1 -4 -1 -3 0 -2 -1 -4 0 -3 -1 -1 0 -5 -1 -3 0 -1 -1 -4 -1 -3 0 -2 -1 -4 0 -3 -1 -1 0 -5 -1 -2 0 -2 -1 -4 -1 -3 0 -1 -1 -5 0 -2 0 -2 -1 -4 -1 -3 0 -1 -2 -9 0 -4 -1 -2 0 -2 -1 -4 0 -2 -1 -2 -1 -4 0 -2 0 -2 0 -1 -2 -7 -1 -4 0 -2 0 -2 -214 -3 0 128c0,30 -25,55 -55,55l-74 1c-30,0 -54,-25 -54,-55l2 -131 -147 -2c-30,0 -55,-25 -56,-55 0,0 -3,-116 2,-111 1,1 78,1 203,1l2 -148c0,-29 25,-54 55,-53l69 2c30,0 54,25 54,55l0 145c57,0 118,0 183,0l0 -1 0 0 0 -2 0 0 0 -1 0 -1 0 0 0 -1 0 -1 0 -1 0 0 0 -1 0 -1 0 -1 0 -1 0 0 0 -1 0 0 0 -1 0 -1 0 -1 0 -1 0 0 0 -1 0 -1 0 -1 0 -1 0 0 0 -1 0 0 0 -2 0 0 0 -1 0 -1 0 0 1 -2 0 0 0 -1 0 -1 0 0 0 -1 0 -1 0 -1 0 0 0 -1 0 -1 0 -1 0 -1 0 0 1 -1 0 -1 0 -1 0 0 0 -1 0 -1 0 0 0 -2 0 0 0 -1 0 -1 1 0 0 -1 0 -1 0 -1 0 0 0 -1 0 -1 0 0 0 -1 1 -1 0 -1 0 0 0 -1 0 -1 0 0 0 -2 0 0 1 -1 0 0 0 -1 0 -1 0 0 0 -1 0 -1 1 -1 0 0 0 -1 0 -1 0 0 0 -1 0 0 1 -1 0 -1 0 -1 0 0 0 -1 1 -1 0 0 0 -1 0 0 0 -1 0 -1 0 0 1 -1 0 0 0 -1 0 0 0 -1 1 -1 0 0 0 -1c0,0 8,-23 68,-17 59,6 77,37 77,37l0 1 0 1 1 0 0 0 0 1 0 0 1 1 0 0 0 1 0 0 1 1 0 0 0 1 0 0 1 1 0 0 0 1 0 0 1 1 0 0 0 1 0 0 1 1 0 0 0 1 1 1 0 0 0 1 0 0 0 1 1 1 0 0 0 0 1 1 0 0 0 1 0 1 1 0 0 1 0 0 0 1 1 1 0 0 0 1 0 0 1 1 0 1 0 0 0 1 1 1 0 0 0 1 1 0 0 1 0 1 0 0 0 1 1 0 0 1 0 0 1 1 0 0 0 1 0 1 1 0 0 1 0 1 0 0 1 1 0 0 0 1 0 1 1 0 0 1 0 1 0 0 1 1 0 0 0 1 0 1 1 0 0 1 0 1 0 0 1 1 0 1 0 1 0 0 0 1 1 1 0 0 0 1 1 1 0 0 0 1 0 0 0 1 1 1 0 0 0 1 0 1 108 0 0 -9 0 -5 0 -4 0 -8 0 -3 0 -6 0 -8 0 -1 0 -8 0 -5 0 -3 0 -9 0 -3 0 -5 0 -8 0 -1 0 -8 0 -5 0 -3 0 -8 0 -3 0 -5 0 -8 0 0 0 -7 0 -6 0 -2 0 -8 0 -3 0 -4 0 -8 0 -1 0 -6 0 -6 0 -1 0 -8 0 -3 0 -4 0 -6 0 -2 0 -5 0 -6 0 -1 0 -7 0 -3 0 -3 0 -6 0 -2 0 -5 0 -5 0 -1 0 -5 0 -4 0 -2 0 -6 0 -2 0 -3 0 -6 0 0 0 -5 0 -3 0 -2 0 -5 0 -2 0 -3 0 -4 0 0 0 -5 0 -3 0 -1 0 -4 0 -1 0 -3 0 -3 0 -1 0 -3 0 -3 0 0 0 -3 0 -2 0 -1 0 -3 0 0 0 -2 0 -2 0 -1 0 -2 0 -1 0 -1 0 -1 0 -1 0 -1 0 -1 0 0 0 -1 0 -1 0 0 0 -1 0 0 0 0 0 0c0,-30 4,-79 7,-109 0,0 13,-107 37,-144 39,-60 79,-28 96,85 4,31 8,65 8,97l0 6 0 5 0 3 0 3 0 5 0 5 0 1 0 6 0 6 0 1 0 5 0 5 0 5 0 1 0 6 0 6 0 1 0 6 0 6 0 3 0 3 0 6 1 6 0 1 0 6 0 6 0 3 0 4 0 6 0 6 0 0 0 7 0 6 0 3 0 4 0 7 0 5 0 1 0 7 0 7 0 1 0 5 0 7 0 4 0 3 0 7 0 6 0 1 0 6 0 7 0 3 0 4 0 7 0 6 0 1 0 6 0 7 0 3 0 4 0 7 0 6 0 1 0 7 0 7 0 1 0 6 0 7 0 4 0 3 0 7 0 7 0 0 0 7 0 7 0 3 0 4 0 7 0 6 0 0 0 7 0 7 0 3 0 4 0 7 0 5 0 2 0 7 0 7 0 1 0 5 255 0 0 0 0 -1 0 0 0 -1 0 0 0 -1 0 0 0 0 0 -1 0 0 0 -1 0 -1 0 0 0 0 0 -1 0 -1 0 0 0 0 0 -1 0 0 0 -1 0 0 0 0 0 -1 0 0 0 -1 0 0 0 -1 0 0 0 0 0 -1 0 -1 0 0 0 0 0 -1 0 0 0 -1 0 0 0 -1 0 0 0 0 0 -1 0 0 0 -1 0 0 0 0 0 -1 0 -1 0 0 0 0 0 -1 0 0 0 -1 0 0 0 -1 0 0 0 0 0 -1 0 0 0 -1 0 0 0 -1 0 0 0 -1 0 0 0 0 0 -1 0 0 0 -1 0 0 0 -1 0 0 0 0 0 -1 0 0 0 -1 0 0 0 -1 0 0 0 -1 0 0 0 0 0 -1 0 0c1,-49 1,-99 1,-147 0,-13 0,-13 0,-13 0,-14 -2,-22 -4,-17 0,0 0,0 0,7 -12,60 -23,68 -23,68 -25,17 -47,31 -49,31 -1,0 -27,-1 -57,-3 0,0 -9,0 -39,-4 -12,-1 -28,-10 -34,-24 -12,-27 -24,-57 -26,-86 -4,-57 -4,-111 1,-162 6,-71 29,-98 81,-99 10,0 10,0 10,0 12,0 30,0 39,0 10,0 41,10 68,22 0,0 16,7 24,69 2,21 7,25 14,25 2,0 2,0 2,0 0,0 4,-25 7,-54 0,0 18,-202 53,-331 2,-7 2,-15 2,-22 0,-3 0,-4 0,-6 0,-31 0,-60 0,-86 0,-10 1,-20 5,-27 3,-6 3,-6 3,-6 7,-1 13,-2 14,-2 0,0 0,0 1,0 15,1 23,14 23,39 0,7 -1,12 -2,18l0 0 0 0 0 0 0 1 0 0 0 0 0 0c-1,7 -2,14 -1,21 4,42 9,86 13,128 4,41 8,82 12,123 1,10 2,20 3,29 4,40 8,81 8,122 0,93 -1,188 -3,280 0,20 -1,39 -1,60 -1,18 1,23 14,24 8,1 30,6 38,23 5,10 8,11 10,11 2,0 2,0 2,0 2,-1 5,-1 6,-2 1,-1 13,-7 26,-14 0,0 0,0 10,-11 25,-29 48,-59 68,-89 28,-43 57,-62 89,-62 9,0 19,2 28,5 11,3 21,8 30,14 85,-5 170,-10 260,-15l-5 198 42 0zm-184 -563c-2,35 -4,70 -7,111 -16,2 -36,4 -82,10 26,-59 42,-97 59,-134 10,4 20,9 30,13zm-165 157c84,1 153,-7 220,3 71,11 29,88 50,165 -80,-1 -149,1 -217,-5 -75,-7 -32,-85 -53,-163zm-14 406l-14 -112c-7,4 -14,11 -21,20 -5,7 -11,14 -16,21 -13,19 -28,38 -43,56l-1 0 0 0 0 1 0 0 0 0 0 0 -1 0 0 0 0 1 0 0 0 0 -1 0 0 0 0 1 0 0 0 0 0 0 -1 0 0 1 0 0 0 0 -1 0 0 1 0 0 0 0 0 0 -1 0 0 0 0 1 0 0 0 0 0 0 -1 0 0 1 0 0 0 0 0 0 -1 0 0 1 0 0 0 0 0 0 0 0 -1 1 0 0 0 0 0 0 0 0 0 0 -1 1 0 0 0 0 0 0 0 0 -1 1 0 0 0 0 0 0 0 0 -1 1 0 0 0 0 0 0 0 0 -1 1 0 0 0 0 0 0 0 0 -1 1 0 0 0 0 0 0 0 0 -1 1 0 0 0 0 0 0 0 0 -1 1 110 -1zm-744 -719c-13,3 -21,-18 -17,-48 0,0 9,-68 17,-121 2,-12 2,-12 2,-12 8,-17 19,-7 23,23l15 93c5,30 -26,62 -40,65zm39 1264c28,0 44,24 36,52 0,0 -29,110 -74,103 -49,-7 -54,-99 -54,-99 -2,-30 66,-55 92,-56zm-65 -543l29 0 6 -389c0,-30 -13,-56 -18,-57 -5,0 -10,25 -10,54l0 1 0 0 0 0 -1 1 0 0 0 1 0 1 0 0 0 1 0 2 0 0 0 2 0 1 0 1 0 2 0 1 0 2 0 3 0 0 0 3 0 2 0 1 0 3 0 2 0 2 0 4 0 1 0 3 0 4 0 0 0 5 0 3 0 2 0 5 -1 1 0 4 0 5 0 0 0 5 0 5 0 1 0 6 0 3 0 3 0 6 0 1 0 5 0 6 0 1 -1 6 0 5 0 2 0 7 0 3 0 4 0 7 0 1 0 7 0 6 0 1 0 8 -1 4 0 4 0 8 0 1 0 7 0 7 0 1 0 8 0 6 0 2 0 9 -1 3 0 5 0 9 0 1 0 8 0 7 0 2 0 9 0 5 0 4 -1 9 0 2 0 7 0 9 0 0 0 10 0 6 0 3 0 9 0 5 -1 5 0 10 0 1 0 8 0 9 0 1 0 10 0 6 0 4zm-625 -381c15,-24 38,-24 51,0 14,26 37,107 8,103 -28,-3 -73,-77 -59,-103zm76 805c29,1 44,26 31,53 0,0 -16,36 -77,37 -62,0 -87,-52 -87,-52 -12,-27 2,-48 32,-45l101 7zm308 -987c23,-19 45,-11 51,19 0,0 11,66 35,121 37,86 25,156 -49,192 -71,35 -136,-2 -168,-89 -37,-103 131,-243 131,-243l0 0z"/>
  <path class="fil0 str1" d="M3237 536c-15,-6 -45,7 -66,28l-361 349c-21,20 -40,62 -40,92l0 81c0,30 22,68 47,84l347 219c25,17 54,17 63,2 11,-14 18,-48 18,-75 0,-27 -11,-70 -26,-96l-46 -82c-15,-26 -42,-66 -62,-89l-11 -11c-19,-23 -24,-63 -9,-89l48 -88c14,-26 36,-69 49,-96l34 -68c13,-27 28,-72 33,-100 5,-28 -3,-56 -18,-61l0 0z"/>
  <path class="fil0 str2" d="M360 922c0,-2 23,-19 48,-38 -16,-20 -32,-39 -47,-53 0,-3 11,-2 13,-7 2,-4 6,-9 9,-8 4,-1 25,23 49,52 24,-17 47,-31 51,-31 9,1 10,10 19,11 4,0 -19,25 -46,49 24,31 45,60 45,62 -3,3 -12,-2 -15,4 -1,4 -6,7 -11,7 -1,1 -19,-23 -42,-54 -27,23 -53,40 -57,28 2,-18 -11,-15 -16,-22z"/>
 </g>
</svg>
