<?xml version="1.0" encoding="utf-8"?>
<!-- Generator: Adobe Illustrator 16.0.0, SVG Export Plug-In . SVG Version: 6.00 Build 0)  -->
<!DOCTYPE svg PUBLIC "-//W3C//DTD SVG 1.1//EN" "http://www.w3.org/Graphics/SVG/1.1/DTD/svg11.dtd">
<svg version="1.1" id="Layer_1" xmlns="http://www.w3.org/2000/svg" xmlns:xlink="http://www.w3.org/1999/xlink" x="0px" y="0px"
	 width="45.35px" height="45.35px" viewBox="0 0 45.35 45.35" enable-background="new 0 0 45.35 45.35" xml:space="preserve">
<g>
	<path fill="#FFFFFF" d="M1.959,38.967V12.36h11.363c2.299,0,4.251,0.789,5.857,2.366s2.41,3.516,2.41,5.817
		c0,0.816-0.191,1.658-0.573,2.523c-0.382,0.866-0.888,1.559-1.517,2.079c2.123,1.076,3.185,2.882,3.185,5.418
		c-0.025,2.437-0.757,4.447-2.197,6.029c-1.439,1.584-3.463,2.375-6.07,2.375H1.959z M8.546,22.825h4.248
		c0.503,0,0.932-0.148,1.288-0.445c0.343-0.321,0.551-0.692,0.625-1.113c0.036-0.21,0.062-0.414,0.073-0.612
		c0-0.21-0.024-0.427-0.073-0.649c-0.086-0.42-0.304-0.785-0.653-1.095c-0.35-0.309-0.781-0.464-1.297-0.464H8.546V22.825z
		 M8.546,32.881h5.418c0.52,0,0.956-0.152,1.308-0.459c0.354-0.307,0.566-0.682,0.641-1.123c0.037-0.209,0.056-0.417,0.056-0.626
		c0.012-0.233-0.007-0.46-0.056-0.681c-0.074-0.441-0.294-0.816-0.658-1.123c-0.365-0.307-0.808-0.459-1.327-0.459H8.546V32.881z"/>
	<path fill="#FFFFFF" d="M28.01,38.967V12.36h16.57v6.086h-9.611v5.808h8.516v6.086h-8.516v8.627H28.01z"/>
</g>
</svg>
